<svg id="Ebene_1" data-name="Ebene 1" xmlns="http://www.w3.org/2000/svg" viewBox="0 0 339.39 159.96">
    <defs><style>
        svg{background:#31a45c}
.cls-1{fill:#33343f;}.cls-2{fill:#fff;}</style>
    </defs><title>Logo</title><path class="cls-1" d="M154.7,131.56a10.4,10.4,0,0,1-6.94-2.61l2.13-2.54a7.53,7.53,0,0,0,4.88,2c1.48,0,2.36-.58,2.36-1.54V126.8c0-.91-0.56-1.38-3.29-2.08-3.3-.84-5.42-1.75-5.42-5v0c0-3,2.38-4.92,5.72-4.92a9.45,9.45,0,0,1,6.07,2.07l-1.87,2.71a7.66,7.66,0,0,0-4.25-1.61c-1.38,0-2.1.63-2.1,1.43v0c0,1.07.7,1.42,3.52,2.14,3.33,0.87,5.19,2.05,5.19,4.91v0.05C160.7,129.74,158.23,131.56,154.7,131.56Z"/><path class="cls-1" d="M166.57,131.33V115h3.6v16.35h-3.6Z"/><path class="cls-1" d="M188.29,131.33l-7.92-10.39v10.39h-3.55V115h3.3l7.66,10.07V115h3.56v16.35h-3.06Z"/><path class="cls-1" d="M205.72,131.61a8.19,8.19,0,0,1-8.6-8.4v0a8.39,8.39,0,0,1,8.57-8.45,9,9,0,0,1,6.43,2.24l-2.26,2.73a6,6,0,0,0-4.28-1.66,4.91,4.91,0,0,0-4.69,5.09v0a4.9,4.9,0,0,0,5,5.18,5.74,5.74,0,0,0,3.38-1V125H205.6v-3.1h7.1V129A10.61,10.61,0,0,1,205.72,131.61Z"/><path class="cls-1" d="M218.74,131.33V115h3.6v13.08h8.15v3.27H218.74Z"/><path class="cls-1" d="M235.77,131.33V115h12.32v3.2h-8.75v3.31H247v3.2h-7.7v3.43h8.87v3.2H235.77Z"/><path class="cls-1" d="M259.8,131.56a10.36,10.36,0,0,1-6.93-2.61l2.12-2.54a7.52,7.52,0,0,0,4.88,2c1.46,0,2.35-.58,2.35-1.54V126.8c0-.91-0.57-1.38-3.3-2.08-3.29-.84-5.42-1.75-5.42-5v0c0-3,2.39-4.92,5.72-4.92a9.46,9.46,0,0,1,6.07,2.07l-1.87,2.71a7.61,7.61,0,0,0-4.25-1.61c-1.38,0-2.1.63-2.1,1.43v0c0,1.07.7,1.42,3.52,2.14,3.32,0.87,5.19,2.05,5.19,4.91v0.05C265.8,129.74,263.33,131.56,259.8,131.56Z"/><path class="cls-2" d="M296.41,72.15c-3,.13-4.48,3.7-6.06,6.06-4.63,6.93-11,14.75-18.61,17.74-7.08,2.8-13.78,0-16.44-6.06,6.43-6.11,15.9-10.28,13.41-23.38a12.6,12.6,0,0,0-3-5.63c-7.42-6.62-17.88,1.3-20.77,5.63-2.14,3.2-2.09,6.55-3.46,10.39-1.06,3-3.77,7-6.06,10.39-3.74,5.55-7.78,11-13.42,12.55-18.6,5.2-12-27.21-9.52-38.09,5.89-.46,14.13,1.44,14.71-4.33-4.61-.28-10.38.57-14.28-0.43,1.86-8.24,5-23.91-8.22-21.64-1.94,6.57-1.24,15.79-3.9,21.64a61.1,61.1,0,0,1-10-1.3c-0.34,2.14-.68,4.05.44,5.63,2.18,1.13,6.95-.31,9.09.87-3.53,18.05-4.46,42.26,14.28,43.29,13.77,0.75,20.8-10.25,26.83-19.48,3.38,10.95,12.54,19.26,26.41,17.31,10.36-1.45,19.68-11.61,24.67-19C294.89,80.74,298.08,75.88,296.41,72.15Zm-35.06-7.35c5.08,8.19-3.11,18.25-7.8,20.77C252,77.53,251.42,62.58,261.36,64.79Z"/><path class="cls-2" d="M173.92,68.69c-0.91,1.69-.22,5-0.43,7.36A135.85,135.85,0,0,1,163.1,89c-3,3.22-8.63,10.2-14.71,9.09-4-.73-7.94-9-6.94-15.58,0.34-2.23,2.75-5.69,4.33-8.65,4.28-8,10.84-18.69,11.68-28.57,0.79-9.09-4.6-12.53-11.25-8.66-7.56,4.41-15,19.78-16,34.63-1.24,17.41,3.25,38.65,21.21,31.6,9.11-3.57,15.25-12.74,22.08-19.91C172.81,93,170.71,110.53,183,105c0.56-4.15.2-11,.43-17.74C183.82,76.28,186,66.37,173.92,68.69ZM151,38.82c2.19-.59,2,4.19,1.73,6.93-1,9.85-7.49,20.44-11.26,28.14C141.31,65.12,144,42,151,38.82Z"/><path class="cls-2" d="M173.49,54c-1.91,11.92,12.06,8.62,11.26,1.3C184.2,50.39,176.37,50.58,173.49,54Z"/><path class="cls-2" d="M112.34,108.7a28.72,28.72,0,0,0,8.36-.91c-1,1-2.3,2.19-3.19,3-1.65,1.54.51,3,1.56,4.47,3.29-2.45,6.82-4.88,8-9.29a6.86,6.86,0,0,0-1.77-5.19c-2.58-1.4-6.15.47-9.16,1.84h0a18,18,0,0,1-11.48,1.6C93.71,103,84.54,98.4,79.33,88.64A32.22,32.22,0,0,1,75.81,78a160.71,160.71,0,0,1,28.46-6.43c-1.09.83-2.19,2-2.18,3.14a3.82,3.82,0,0,0,1.61,3.17,5.62,5.62,0,0,0,5.56.52,14.7,14.7,0,0,0,3.59-2.5,19.23,19.23,0,0,0,1.36-1.62c0.43-.56.79-1.11,1.18-1.59s0.81-1,1.25-1.41L118,69.87c0.93-.91,1.88-1.83,2.83-2.7a1.35,1.35,0,0,0,.31-0.43,1.32,1.32,0,0,0-.66-1.75l-0.06,0c-1.58-.71-3.23-1.37-4.78-2.14-0.79-.36-1.56-0.74-2.29-1.13-0.36-.18-0.7-0.39-1.11-0.64s-0.81-.45-1.23-0.66a10.6,10.6,0,0,0-5.5-1.27,6.63,6.63,0,0,0-2.69.84,5.05,5.05,0,0,0-1.93,1.94,3,3,0,0,0-.44,2.61c0.69,1.51,2.49,1.84,3.74,1.88-3,.44-6.54,1.07-10.89,1.82a140.34,140.34,0,0,0-17.8,4.55,37.33,37.33,0,0,1,.46-5.37c2.45-15.81,16.33-27.8,31.51-30.18h0c2.07-.47,2.68-1.16,2.45-2.06-1.27-4-8.05-5.86-13.13-6.79-0.17,1.81-1,2.66,1.24,3.26,0.84,0.23,1.62.35,2.4,0.51l-0.31,0C86.26,34.15,73.23,46.43,68.44,58a36.7,36.7,0,0,0-2.36,18.18c-2.14.87-4.35,1.81-6.66,2.84-4.7-2.47-10.4-3.28-15.87-4.16-0.74,2.71-2.48,3.94,1.45,5,2.53,0.65,4.83.8,7.23,1.63l1,0.38c-4.47,2.11-6.42,3.6-3.56,7.25,1.89-1,3.71-1.84,5.49-2.69l-0.36,1.28c-0.74,2.42-2,4.36-3,6.79-1.5,3.77.52,3.09,3.14,4.11,2.47-4.81,5.15-9.75,6-14.86,2.05-.91,4-1.74,6-2.53a33.38,33.38,0,0,0,8.59,15.53c6.32,6.29,14.83,9.38,23.83,11.07A99.06,99.06,0,0,0,112.34,108.7Z"/></svg>